####
#
# OBJ File Generated by Meshlab
#
####
# Object missile.obj
#
# Vertices: 74
# Faces: 128
#
####
mtllib ./missile.obj.mtl

vn -0.358723 0.933432 -0.004684
v -0.046361 0.142659 -1.079862
vn -0.629614 0.776894 -0.004682
v -0.088176 0.121353 -1.079861
vn -0.838870 0.544311 -0.004680
v -0.121361 0.088168 -1.079861
vn -0.966017 0.258437 -0.004679
v -0.142667 0.046353 -1.079861
vn -0.998599 -0.052717 -0.004679
v -0.150008 0.000000 -1.079861
vn -0.933432 -0.358723 -0.004680
v -0.142667 -0.046353 -1.079861
vn -0.776894 -0.629614 -0.004681
v -0.121361 -0.088168 -1.079861
vn -0.544311 -0.838870 -0.004682
v -0.088176 -0.121353 -1.079861
vn -0.258437 -0.966017 -0.004685
v -0.046361 -0.142659 -1.079862
vn 0.052717 -0.998599 -0.004687
v -0.000008 -0.150000 -1.079862
vn 0.358723 -0.933432 -0.004689
v 0.046345 -0.142659 -1.079862
vn 0.629614 -0.776894 -0.004691
v 0.088160 -0.121353 -1.079863
vn 0.838877 -0.544301 -0.004693
v 0.121345 -0.088168 -1.079863
vn 0.966015 -0.258444 -0.004694
v 0.142650 -0.046353 -1.079863
vn 0.998598 0.052724 -0.004694
v 0.149992 0.000000 -1.079863
vn 0.933434 0.358717 -0.004693
v 0.142650 0.046353 -1.079863
vn 0.776898 0.629609 -0.004692
v 0.121345 0.088168 -1.079863
vn 0.544301 0.838877 -0.004690
v 0.088160 0.121353 -1.079863
vn 0.258444 0.966015 -0.004688
v 0.046345 0.142658 -1.079862
vn -0.052710 0.998599 -0.004686
v -0.000008 0.150000 -1.079862
vn -0.258437 0.966017 0.004688
v -0.046338 0.142659 2.000000
vn -0.544311 0.838870 0.004691
v -0.088153 0.121353 2.000001
vn -0.776894 0.629614 0.004692
v -0.121338 0.088168 2.000001
vn -0.933432 0.358723 0.004693
v -0.142644 0.046353 2.000001
vn -0.998598 0.052717 0.004694
v -0.149985 0.000000 2.000001
vn -0.966017 -0.258437 0.004694
v -0.142644 -0.046353 2.000001
vn -0.838870 -0.544311 0.004693
v -0.121338 -0.088168 2.000001
vn -0.629614 -0.776894 0.004691
v -0.088153 -0.121353 2.000001
vn -0.358723 -0.933432 0.004689
v -0.046338 -0.142659 2.000000
vn -0.052717 -0.998599 0.004687
v 0.000015 -0.150000 2.000000
vn 0.258437 -0.966017 0.004685
v 0.046368 -0.142659 2.000000
vn 0.544311 -0.838870 0.004682
v 0.088183 -0.121353 1.999999
vn 0.776898 -0.629609 0.004681
v 0.121368 -0.088168 1.999999
vn 0.933435 -0.358717 0.004680
v 0.142673 -0.046353 1.999999
vn 0.998598 -0.052724 0.004679
v 0.150015 0.000000 1.999999
vn 0.966015 0.258444 0.004679
v 0.142673 0.046353 1.999999
vn 0.838877 0.544301 0.004680
v 0.121368 0.088168 1.999999
vn 0.629610 0.776898 0.004682
v 0.088183 0.121353 1.999999
vn 0.358717 0.933434 0.004684
v 0.046368 0.142658 2.000000
vn 0.052731 0.998598 0.004686
v 0.000015 0.150000 2.000000
vn -0.000007 0.000000 -1.000000
v -0.000008 0.000000 -1.079862
vn 0.000007 0.000000 1.000000
v 0.000015 0.000000 2.000000
vn 0.343675 0.899273 0.270549
v 0.021766 0.463425 -0.973981
vn 0.666662 0.333333 -0.666672
v 0.021765 0.463425 -1.047309
vn -0.590622 0.659524 0.464966
v -0.023234 0.463425 -0.973981
vn -0.408251 0.816497 -0.408245
v -0.023235 0.463425 -1.047309
vn -0.531988 -0.735928 0.418806
v -0.023232 0.125011 -0.708896
vn -0.666672 -0.333333 -0.666662
v -0.023235 0.125011 -1.047309
vn 0.782462 0.091276 0.615972
v 0.021768 0.125011 -0.708896
vn 0.408245 -0.816497 -0.408251
v 0.021765 0.125011 -1.047309
vn -0.899271 0.343673 0.270557
v -0.464158 0.022661 -0.973978
vn -0.333338 0.666667 -0.666664
v -0.464159 0.022661 -1.047306
vn -0.659521 -0.590626 0.464965
v -0.464158 -0.022661 -0.973978
vn -0.816500 -0.408248 -0.408242
v -0.464159 -0.022661 -1.047306
vn 0.735931 -0.531992 0.418796
v -0.125743 -0.022661 -0.708895
vn 0.333328 -0.666667 -0.666669
v -0.125746 -0.022661 -1.047308
vn -0.091273 0.782458 0.615978
v -0.125743 0.022661 -0.708895
vn 0.816494 0.408248 -0.408254
v -0.125746 0.022661 -1.047308
vn 0.899275 -0.343673 0.270544
v 0.462691 -0.022661 -0.973984
vn 0.333328 -0.666667 -0.666669
v 0.462690 -0.022661 -1.047312
vn 0.659528 0.590626 0.464956
v 0.462691 0.022661 -0.973984
vn 0.816494 0.408248 -0.408254
v 0.462690 0.022661 -1.047312
vn -0.735925 0.531992 0.418807
v 0.124280 0.022661 -0.708897
vn -0.333338 0.666667 -0.666664
v 0.124277 0.022661 -1.047310
vn 0.091282 -0.782458 0.615977
v 0.124280 -0.022661 -0.708897
vn -0.816500 -0.408248 -0.408242
v 0.124277 -0.022661 -1.047310
vn -0.343671 -0.899273 0.270554
v -0.023234 -0.463425 -0.973981
vn -0.666672 -0.333333 -0.666662
v -0.023235 -0.463425 -1.047309
vn 0.590629 -0.659524 0.464957
v 0.021766 -0.463425 -0.973981
vn 0.408245 -0.816497 -0.408251
v 0.021765 -0.463425 -1.047309
vn 0.531994 0.735928 0.418798
v 0.021768 -0.125011 -0.708896
vn 0.666662 0.333333 -0.666672
v 0.021765 -0.125011 -1.047309
vn -0.782453 -0.091276 0.615984
v -0.023232 -0.125011 -0.708896
vn -0.408251 0.816497 -0.408245
v -0.023235 -0.125011 -1.047309
# 74 vertices, 0 vertices normals


usemtl material_0
vt 0.000000 0.159155
vt 0.050000 0.159155
vt 0.050000 0.477465
f 1/1/1 2/2/2 22/3/22
vt 0.000000 0.477465
f 1/1/1 22/3/22 21/4/21
vt 0.100000 0.159155
vt 0.100000 0.477465
f 2/2/2 3/5/3 23/6/23
f 2/2/2 23/6/23 22/3/22
vt 0.150000 0.159155
vt 0.150000 0.477465
f 3/5/3 4/7/4 24/8/24
f 3/5/3 24/8/24 23/6/23
vt 0.200000 0.159155
vt 0.200000 0.477465
f 4/7/4 5/9/5 25/10/25
f 4/7/4 25/10/25 24/8/24
vt 0.250000 0.159155
vt 0.250000 0.477465
f 5/9/5 6/11/6 26/12/26
f 5/9/5 26/12/26 25/10/25
vt 0.300000 0.159155
vt 0.300000 0.477465
f 6/11/6 7/13/7 27/14/27
f 6/11/6 27/14/27 26/12/26
vt 0.350000 0.159155
vt 0.350000 0.477465
f 7/13/7 8/15/8 28/16/28
f 7/13/7 28/16/28 27/14/27
vt 0.400000 0.159155
vt 0.400000 0.477465
f 8/15/8 9/17/9 29/18/29
f 8/15/8 29/18/29 28/16/28
vt 0.450000 0.159155
vt 0.450000 0.477465
f 9/17/9 10/19/10 30/20/30
f 9/17/9 30/20/30 29/18/29
vt 0.500000 0.159155
vt 0.500000 0.477465
f 10/19/10 11/21/11 31/22/31
f 10/19/10 31/22/31 30/20/30
vt 0.550000 0.159155
vt 0.550000 0.477465
f 11/21/11 12/23/12 32/24/32
f 11/21/11 32/24/32 31/22/31
vt 0.600000 0.159155
vt 0.600000 0.477465
f 12/23/12 13/25/13 33/26/33
f 12/23/12 33/26/33 32/24/32
vt 0.650000 0.159155
vt 0.650000 0.477465
f 13/25/13 14/27/14 34/28/34
f 13/25/13 34/28/34 33/26/33
vt 0.700000 0.159155
vt 0.700000 0.477465
f 14/27/14 15/29/15 35/30/35
f 14/27/14 35/30/35 34/28/34
vt 0.750000 0.159155
vt 0.750000 0.477465
f 15/29/15 16/31/16 36/32/36
f 15/29/15 36/32/36 35/30/35
vt 0.800000 0.159155
vt 0.800000 0.477465
f 16/31/16 17/33/17 37/34/37
f 16/31/16 37/34/37 36/32/36
vt 0.850000 0.159155
vt 0.850000 0.477465
f 17/33/17 18/35/18 38/36/38
f 17/33/17 38/36/38 37/34/37
vt 0.900000 0.159155
vt 0.900000 0.477465
f 18/35/18 19/37/19 39/38/39
f 18/35/18 39/38/39 38/36/38
vt 0.950000 0.159155
vt 0.950000 0.477465
f 19/37/19 20/39/20 40/40/40
f 19/37/19 40/40/40 39/38/39
vt 1.000000 0.159155
vt 1.000000 0.477465
f 20/39/20 1/41/1 21/42/21
f 20/39/20 21/42/21 40/40/40
vt 0.500000 0.000000
f 2/2/2 1/1/1 41/43/41
f 3/5/3 2/2/2 41/43/41
f 4/7/4 3/5/3 41/43/41
f 5/9/5 4/7/4 41/43/41
f 6/11/6 5/9/5 41/43/41
f 7/13/7 6/11/6 41/43/41
f 8/15/8 7/13/7 41/43/41
f 9/17/9 8/15/8 41/43/41
f 10/19/10 9/17/9 41/43/41
f 11/21/11 10/19/10 41/43/41
f 12/23/12 11/21/11 41/43/41
f 13/25/13 12/23/12 41/43/41
f 14/27/14 13/25/13 41/43/41
f 15/29/15 14/27/14 41/43/41
f 16/31/16 15/29/15 41/43/41
f 17/33/17 16/31/16 41/43/41
f 18/35/18 17/33/17 41/43/41
f 19/37/19 18/35/18 41/43/41
f 20/39/20 19/37/19 41/43/41
f 1/41/1 20/39/20 41/43/41
vt 0.500000 0.636620
f 21/4/21 22/3/22 42/44/42
f 22/3/22 23/6/23 42/44/42
f 23/6/23 24/8/24 42/44/42
f 24/8/24 25/10/25 42/44/42
f 25/10/25 26/12/26 42/44/42
f 26/12/26 27/14/27 42/44/42
f 27/14/27 28/16/28 42/44/42
f 28/16/28 29/18/29 42/44/42
f 29/18/29 30/20/30 42/44/42
f 30/20/30 31/22/31 42/44/42
f 31/22/31 32/24/32 42/44/42
f 32/24/32 33/26/33 42/44/42
f 33/26/33 34/28/34 42/44/42
f 34/28/34 35/30/35 42/44/42
f 35/30/35 36/32/36 42/44/42
f 36/32/36 37/34/37 42/44/42
f 37/34/37 38/36/38 42/44/42
f 38/36/38 39/38/39 42/44/42
f 39/38/39 40/40/40 42/44/42
f 40/40/40 21/42/21 42/44/42

usemtl material_1
vt 0.000000 0.000000
vt 1.000000 0.000000
vt 1.000000 1.000000
f 43/45/43 44/46/44 46/47/46
vt 0.000000 1.000000
f 43/45/43 46/47/46 45/48/45
vt 1.000000 2.000000
f 45/48/45 46/47/46 48/49/48
vt 0.000000 2.000000
f 45/48/45 48/49/48 47/50/47
vt 1.000000 3.000000
f 47/50/47 48/49/48 50/51/50
vt 0.000000 3.000000
f 47/50/47 50/51/50 49/52/49
vt 1.000000 4.000000
f 49/52/49 50/51/50 44/53/44
vt 0.000000 4.000000
f 49/52/49 44/53/44 43/54/43
vt 2.000000 0.000000
vt 2.000000 1.000000
f 44/46/44 50/55/50 48/56/48
f 44/46/44 48/56/48 46/47/46
vt -1.000000 0.000000
f 49/57/49 43/45/43 45/48/45
vt -1.000000 1.000000
f 49/57/49 45/48/45 47/58/47
f 51/45/51 52/46/52 54/47/54
f 51/45/51 54/47/54 53/48/53
f 53/48/53 54/47/54 56/49/56
f 53/48/53 56/49/56 55/50/55
f 55/50/55 56/49/56 58/51/58
f 55/50/55 58/51/58 57/52/57
f 57/52/57 58/51/58 52/53/52
f 57/52/57 52/53/52 51/54/51
f 52/46/52 58/55/58 56/56/56
f 52/46/52 56/56/56 54/47/54
f 57/57/57 51/45/51 53/48/53
f 57/57/57 53/48/53 55/58/55
f 59/45/59 60/46/60 62/47/62
f 59/45/59 62/47/62 61/48/61
f 61/48/61 62/47/62 64/49/64
f 61/48/61 64/49/64 63/50/63
f 63/50/63 64/49/64 66/51/66
f 63/50/63 66/51/66 65/52/65
f 65/52/65 66/51/66 60/53/60
f 65/52/65 60/53/60 59/54/59
f 60/46/60 66/55/66 64/56/64
f 60/46/60 64/56/64 62/47/62
f 65/57/65 59/45/59 61/48/61
f 65/57/65 61/48/61 63/58/63
f 67/45/67 68/46/68 70/47/70
f 67/45/67 70/47/70 69/48/69
f 69/48/69 70/47/70 72/49/72
f 69/48/69 72/49/72 71/50/71
f 71/50/71 72/49/72 74/51/74
f 71/50/71 74/51/74 73/52/73
f 73/52/73 74/51/74 68/53/68
f 73/52/73 68/53/68 67/54/67
f 68/46/68 74/55/74 72/56/72
f 68/46/68 72/56/72 70/47/70
f 73/57/73 67/45/67 69/48/69
f 73/57/73 69/48/69 71/58/71
# 128 faces, 58 coords texture

# End of File
